<svg width="178" height="91" viewBox="0 0 178 91" fill="none" xmlns="http://www.w3.org/2000/svg">
<g clip-path="url(#clip0_115_120)">
<path d="M37.835 88.938C37.5166 88.8743 37.2274 88.709 37.011 88.467C36.8277 87.7902 36.7471 87.0897 36.772 86.389C36.7246 85.183 36.701 82.74 36.701 79.06C36.701 76.271 36.739 72.641 36.814 69.899C36.8326 69.411 36.8419 69.12 36.8419 69.026C36.8688 68.7414 36.8125 68.4552 36.68 68.202C36.6285 68.1339 36.5593 68.0813 36.4799 68.05C36.3762 68.011 36.2618 68.011 36.158 68.05L32.858 69.137C32.7628 69.1657 32.6788 69.2232 32.6177 69.3017C32.5567 69.3802 32.5214 69.4756 32.517 69.575C32.517 69.903 32.7503 70.1 33.2169 70.166C33.485 70.1877 33.7497 70.2397 34.006 70.321C34.206 70.471 34.342 71.0226 34.414 71.976C34.489 72.929 34.5269 76.139 34.5269 79.876V82.299C34.5269 84.599 34.508 86.1596 34.47 86.981C34.4823 87.4838 34.4148 87.9853 34.27 88.467C34.0543 88.7095 33.7653 88.8749 33.447 88.938C33.0096 89.0746 32.7913 89.265 32.792 89.509C32.7925 89.6229 32.8381 89.7321 32.9189 89.8124C32.9997 89.8928 33.109 89.938 33.223 89.938H38.049C38.1631 89.9382 38.2727 89.8932 38.3537 89.8128C38.4347 89.7324 38.4804 89.6231 38.481 89.509C38.487 89.265 38.2716 89.0746 37.835 88.938Z" fill="white"/>
<path d="M45.08 88.9379C44.7614 88.8748 44.4721 88.7094 44.256 88.4669C44.0721 87.7902 43.9916 87.0896 44.017 86.3889C43.9704 85.1829 43.9467 82.7399 43.946 79.0599C43.946 76.2709 43.984 72.6409 44.059 69.8989C44.0784 69.4109 44.0877 69.1199 44.087 69.0259C44.1138 68.7413 44.0576 68.4551 43.925 68.2019C43.8658 68.1233 43.7829 68.0658 43.6886 68.0379C43.5943 68.01 43.4935 68.0131 43.401 68.0469L40.101 69.1339C40.0058 69.1626 39.9219 69.2201 39.8608 69.2986C39.7997 69.377 39.7645 69.4725 39.76 69.5719C39.76 69.8999 39.9934 70.0969 40.46 70.1629C40.728 70.1846 40.9927 70.2365 41.249 70.3179C41.449 70.4679 41.585 71.0195 41.657 71.9729C41.732 72.9259 41.77 76.1359 41.77 79.8729V82.2959C41.77 84.5959 41.751 86.1565 41.713 86.9779C41.7253 87.4807 41.6579 87.9822 41.513 88.4639C41.297 88.7064 41.0076 88.8717 40.689 88.9349C40.253 89.0715 40.0347 89.2619 40.034 89.5059C40.0346 89.62 40.0803 89.7293 40.1613 89.8097C40.2423 89.8901 40.3519 89.9351 40.466 89.9349H45.292C45.4062 89.9351 45.5157 89.8901 45.5967 89.8097C45.6777 89.7293 45.7235 89.62 45.724 89.5059C45.7314 89.2639 45.5167 89.0745 45.08 88.9379Z" fill="white"/>
<path d="M30.62 88.945C30.4682 88.9129 30.3213 88.8611 30.183 88.791C30.009 88.6935 29.8709 88.5428 29.789 88.361C29.6679 88.0645 29.6002 87.749 29.589 87.429C29.575 87.122 29.566 83.235 29.589 82.362C29.612 81.489 29.617 80.502 29.617 79.976C29.7388 78.5226 29.2922 77.0787 28.371 75.948C27.8515 75.48 27.2418 75.1233 26.5794 74.8997C25.9169 74.6761 25.2157 74.5905 24.519 74.648C23.2266 74.6233 21.9505 74.9392 20.819 75.564C19.7443 76.174 19.207 76.8263 19.207 77.521C19.2004 77.6528 19.2208 77.7845 19.2668 77.9081C19.3129 78.0317 19.3837 78.1447 19.4749 78.24C19.5675 78.3295 19.6773 78.3993 19.7976 78.4452C19.9179 78.4911 20.0463 78.5121 20.175 78.507C20.6543 78.507 21.1283 78.1737 21.597 77.507C21.747 77.307 21.8596 77.1617 21.935 77.071C22.2527 76.6892 22.6459 76.3774 23.09 76.155C23.5262 75.9514 24.0026 75.8489 24.4839 75.855C24.8994 75.8171 25.3178 75.8828 25.7018 76.0461C26.0857 76.2094 26.4231 76.4654 26.684 76.791C27.2072 77.8367 27.4406 79.0035 27.36 80.17C27.36 80.414 27.36 80.597 27.353 80.719C27.346 80.841 27.341 80.959 27.332 81.071C26.815 81.015 25.322 80.888 24.304 80.888C19.88 80.888 18.0229 83.111 18.0229 86.063C18.0439 86.6386 18.1797 87.2041 18.4225 87.7265C18.6652 88.2488 19.01 88.7173 19.4364 89.1044C19.8629 89.4915 20.3624 89.7895 20.9057 89.9807C21.449 90.172 22.025 90.2526 22.5999 90.218C26.1879 90.218 27.177 88.503 27.177 88.503C27.177 88.8812 27.3272 89.2439 27.5946 89.5113C27.8621 89.7787 28.2248 89.929 28.603 89.929H30.866C30.9788 89.9293 31.0871 89.8848 31.1671 89.8053C31.2472 89.7258 31.2924 89.6178 31.293 89.505C31.296 89.255 31.07 89.068 30.62 88.945ZM27.335 84.445C27.3829 85.6352 26.9946 86.8019 26.243 87.726C25.8672 88.0926 25.4205 88.3786 24.9302 88.5663C24.44 88.7541 23.9165 88.8397 23.392 88.818C22.9746 88.8087 22.5636 88.7131 22.1849 88.5373C21.8062 88.3614 21.468 88.1092 21.1915 87.7963C20.915 87.4835 20.7062 87.1168 20.5782 86.7194C20.4503 86.322 20.4059 85.9024 20.448 85.487C20.448 82.8 22.456 82.079 24.8 82.079C25.6503 82.0866 26.4983 82.1669 27.335 82.319V84.445Z" fill="white"/>
<path d="M1.93796 69.837C2.31549 70.3225 2.60644 70.8695 2.79797 71.454C2.83297 71.544 8.77295 86.597 9.97095 89.687C10.0328 89.8462 10.1414 89.9829 10.2824 90.0792C10.4234 90.1756 10.5902 90.2271 10.761 90.227C10.9299 90.2272 11.0951 90.1767 11.235 90.0821C11.375 89.9874 11.4833 89.8529 11.546 89.696C12.774 86.632 18.904 71.596 19.058 71.261C19.2737 70.7428 19.5704 70.2621 19.9369 69.837C20.4435 69.5035 20.9983 69.2499 21.582 69.085C21.6919 69.0237 21.7783 68.9278 21.8279 68.8121C21.8775 68.6965 21.8873 68.5677 21.8559 68.4459C21.8245 68.324 21.7535 68.2161 21.6542 68.1388C21.5549 68.0616 21.4328 68.0194 21.3069 68.019H15.481C15.371 68.0163 15.2632 68.049 15.1732 68.1122C15.0832 68.1753 15.0158 68.2657 14.981 68.37C14.895 68.675 15.133 68.978 15.93 69.249C16.453 69.426 17.2689 69.609 17.2299 70.456C17.1619 71.824 13.1859 81.097 11.7299 84.433C11.6875 84.5306 11.617 84.6133 11.5273 84.6707C11.4377 84.728 11.333 84.7574 11.2266 84.755C11.1202 84.7527 11.0169 84.7187 10.9299 84.6574C10.8429 84.5962 10.776 84.5104 10.7379 84.411C9.50894 81.199 6.23795 72.596 5.66995 70.793C5.31395 69.67 6.33097 69.426 6.85397 69.249C7.65397 68.978 7.88897 68.675 7.80197 68.37C7.76741 68.2655 7.7001 68.175 7.61004 68.1117C7.51999 68.0485 7.41196 68.016 7.30197 68.019H0.572966C0.44715 68.0194 0.325027 68.0616 0.225706 68.1388C0.126385 68.2161 0.0554441 68.324 0.0240155 68.4459C-0.00741298 68.5677 0.00243676 68.6965 0.0520002 68.8121C0.101564 68.9278 0.188075 69.0237 0.297972 69.085C0.879959 69.2501 1.43308 69.5037 1.93796 69.837Z" fill="white"/>
<path d="M49.684 82.0489H59.647C59.7531 82.0489 59.8548 82.0068 59.9298 81.9318C60.0048 81.8568 60.047 81.755 60.047 81.6489C60.047 79.7319 59.333 74.6489 53.5319 74.6489C50.814 74.6489 46.599 76.1259 46.599 82.7489C46.5424 83.715 46.6851 84.6824 47.0182 85.5911C47.3513 86.4997 47.8676 87.3302 48.5351 88.0309C49.2026 88.7316 50.0071 89.2876 50.8985 89.6643C51.7899 90.0411 52.7492 90.2305 53.7169 90.2209C54.9758 90.25 56.2177 89.9269 57.3027 89.288C58.3878 88.6491 59.2728 87.7198 59.858 86.6049C59.8928 86.5311 59.9122 86.451 59.915 86.3695C59.9178 86.2879 59.9039 86.2067 59.8742 86.1307C59.8446 86.0547 59.7997 85.9855 59.7424 85.9275C59.6851 85.8694 59.6166 85.8236 59.541 85.7929L59.526 85.7869C59.4043 85.7366 59.2695 85.7273 59.1421 85.7605C59.0147 85.7937 58.9016 85.8676 58.8199 85.9709C58.22 86.8021 57.394 87.4436 56.4401 87.8191C55.4862 88.1945 54.4445 88.2882 53.439 88.0889C49.346 87.6299 49.279 83.7729 49.279 82.4409C49.2811 82.3354 49.3248 82.2349 49.4007 82.1615C49.4766 82.088 49.5784 82.0476 49.684 82.0489ZM49.953 78.1599C50.3083 77.5215 50.8278 76.9896 51.4576 76.6194C52.0875 76.2491 52.8048 76.0538 53.5355 76.0538C54.2661 76.0538 54.9835 76.2491 55.6133 76.6194C56.2432 76.9896 56.7626 77.5215 57.1179 78.1599C57.4507 78.8635 57.6186 79.6337 57.6089 80.4119C57.6074 80.517 57.5646 80.6172 57.4897 80.6909C57.4149 80.7646 57.314 80.8059 57.209 80.8059H49.8679C49.7629 80.8059 49.6621 80.7646 49.5872 80.6909C49.5124 80.6172 49.4695 80.517 49.468 80.4119C49.456 79.6341 49.6219 78.8639 49.953 78.1599Z" fill="white"/>
<path d="M162.075 83.808C160.682 81.116 154.891 80.352 155.007 78.008C155.09 77.3703 155.408 76.7868 155.9 76.3723C156.391 75.9579 157.02 75.7426 157.663 75.769C158.251 75.761 158.831 75.9068 159.346 76.192C159.848 76.4751 160.263 76.89 160.546 77.392C160.612 77.504 160.707 77.673 160.828 77.899C161.156 78.481 161.456 78.772 161.728 78.772C161.806 78.7716 161.884 78.7531 161.954 78.7181C162.025 78.6831 162.086 78.6324 162.134 78.5699C162.182 78.5075 162.215 78.4349 162.23 78.3578C162.245 78.2806 162.243 78.201 162.223 78.125L161.389 74.959C161.373 74.9019 161.346 74.8489 161.308 74.8036C161.269 74.7584 161.222 74.7221 161.168 74.6972C161.115 74.6723 161.056 74.6595 160.997 74.6596C160.938 74.6598 160.879 74.6729 160.826 74.698H160.82C160.319 74.9341 159.754 75.0011 159.212 74.889C158.69 74.7477 158.153 74.6698 157.612 74.657C155.281 74.657 152.585 75.774 152.585 78.485C152.585 82.203 158.661 83.002 160.012 85.311C160.289 85.6893 160.41 86.1599 160.349 86.625C160.324 86.9648 160.223 87.2947 160.054 87.5903C159.884 87.8859 159.65 88.1397 159.37 88.333C158.574 88.8108 157.643 89.0136 156.721 88.91C156.139 88.8244 155.589 88.5882 155.127 88.225C154.681 87.9218 154.333 87.4945 154.127 86.996C154.08 86.874 154.014 86.692 153.927 86.45C153.695 85.8233 153.444 85.49 153.176 85.45C153.098 85.4376 153.019 85.4432 152.943 85.4665C152.868 85.4898 152.799 85.5301 152.742 85.5842C152.685 85.6383 152.641 85.7049 152.614 85.7787C152.587 85.8526 152.577 85.9317 152.585 86.01L152.904 89.267C152.909 89.3261 152.927 89.3833 152.957 89.4345C152.988 89.4856 153.029 89.5294 153.078 89.5628C153.127 89.5961 153.183 89.6181 153.241 89.6271C153.3 89.6361 153.36 89.632 153.417 89.615H153.424C153.956 89.462 154.524 89.4859 155.042 89.683C155.534 89.9063 156.051 90.0689 156.583 90.167C158.096 90.3839 159.638 90.0591 160.935 89.25C161.416 88.8857 161.81 88.4196 162.089 87.885C162.368 87.3504 162.526 86.7606 162.55 86.158C162.633 85.3446 162.468 84.525 162.075 83.808Z" fill="white"/>
<path d="M135.173 88.945C135.021 88.9131 134.874 88.8613 134.736 88.791C134.562 88.6935 134.424 88.5428 134.342 88.361C134.246 88.068 134.198 87.7613 134.201 87.453C134.173 86.861 134.053 82.412 134.053 79.653C134.053 77.6817 134.1 75.52 134.194 73.168C134.287 70.816 134.335 69.112 134.335 68.727C134.334 68.6157 134.324 68.5047 134.306 68.395C134.296 68.3321 134.273 68.272 134.238 68.2188C134.203 68.1657 134.157 68.1209 134.103 68.0874C134.049 68.0539 133.988 68.0326 133.925 68.0249C133.862 68.0173 133.797 68.0234 133.737 68.043L130.703 69.031C130.609 69.0614 130.529 69.1223 130.474 69.204C130.42 69.2858 130.394 69.3835 130.402 69.4815C130.409 69.5795 130.45 69.6721 130.516 69.7443C130.583 69.8166 130.672 69.8644 130.769 69.88H130.786C130.952 69.8958 131.117 69.9239 131.279 69.964C131.397 70.0166 131.5 70.0985 131.577 70.202C131.655 70.3054 131.704 70.4269 131.722 70.555C131.828 71.2252 131.873 71.9037 131.856 72.582V74.92C131.863 75.1268 131.837 75.3335 131.779 75.532C131.727 75.678 131.659 75.75 131.574 75.75C131.464 75.72 131.36 75.6727 131.265 75.61C130.166 75 128.93 74.6799 127.673 74.68C126.726 74.6638 125.787 74.8552 124.922 75.2408C124.058 75.6265 123.288 76.1969 122.667 76.912C121.303 78.4456 120.579 80.4445 120.646 82.496C120.563 84.5599 121.195 86.5891 122.435 88.241C123.01 88.8885 123.719 89.402 124.514 89.7452C125.309 90.0884 126.17 90.2528 127.035 90.227C127.711 90.2366 128.385 90.1463 129.035 89.959C129.994 89.5997 130.9 89.113 131.729 88.512C131.729 88.6993 131.766 88.8848 131.837 89.0578C131.909 89.2309 132.014 89.3882 132.146 89.5206C132.279 89.6531 132.436 89.7581 132.609 89.8297C132.782 89.9013 132.968 89.9381 133.155 89.938H135.418C135.531 89.938 135.639 89.8934 135.719 89.814C135.799 89.7346 135.844 89.6267 135.845 89.514C135.849 89.255 135.623 89.068 135.173 88.945ZM131.194 87.227C130.231 88.0853 128.992 88.57 127.702 88.593C127.08 88.6079 126.464 88.4731 125.905 88.1999C125.346 87.9266 124.861 87.523 124.491 87.023C123.624 85.613 123.198 83.9766 123.266 82.323C123.187 80.7127 123.653 79.123 124.589 77.81C124.986 77.2667 125.508 76.8274 126.112 76.5295C126.715 76.2315 127.381 76.0839 128.054 76.099C128.566 76.0628 129.08 76.1294 129.566 76.295C130.052 76.4605 130.5 76.7217 130.884 77.063C131.227 77.4417 131.49 77.8858 131.657 78.3687C131.824 78.8516 131.892 79.3633 131.856 79.873V84.802C131.869 85.385 131.82 85.9677 131.708 86.54C131.597 86.8085 131.42 87.0447 131.194 87.227Z" fill="white"/>
<path d="M119.085 88.9448C118.933 88.9127 118.786 88.861 118.648 88.7908C118.474 88.6933 118.336 88.5426 118.254 88.3608C118.158 88.0677 118.111 87.7611 118.113 87.4528C118.085 86.8608 118.064 85.8638 118.05 85.3188C118.036 84.7738 118.029 84.2578 118.029 83.7698C118.029 83.5068 118.029 83.1458 118.043 82.6858C118.057 82.2258 118.057 81.8918 118.057 81.6858C118.057 81.0478 118.333 74.6528 112.987 74.6528C110.403 74.6528 108.499 77.2788 108.368 77.2788C108.342 77.2797 108.316 77.2729 108.293 77.2592C108.27 77.2455 108.252 77.2256 108.241 77.2018C108.206 77.0739 108.192 76.9412 108.199 76.8088V76.0088C108.225 75.7183 108.171 75.4263 108.044 75.1638C108 75.1033 107.943 75.053 107.878 75.0161C107.813 74.9792 107.741 74.9566 107.666 74.9498C107.575 74.9364 107.483 74.9503 107.4 74.9898L104.657 76.2718C104.566 76.3136 104.492 76.3832 104.444 76.4706C104.396 76.558 104.377 76.6585 104.39 76.7573C104.403 76.8561 104.448 76.9481 104.518 77.0196C104.587 77.0912 104.678 77.1386 104.776 77.1548H104.791C105.289 77.2215 105.58 77.3215 105.664 77.4548C105.866 77.8125 105.962 78.2206 105.939 78.6308C106 79.4308 106.03 80.9058 106.03 82.3608C106.03 84.2762 106.009 85.6538 105.967 86.4938C105.964 87.157 105.891 87.8181 105.749 88.4658C105.533 88.7079 105.243 88.8732 104.925 88.9368C104.434 89.0895 104.219 89.3108 104.28 89.6008C104.303 89.6973 104.357 89.7832 104.435 89.8443C104.513 89.9054 104.61 89.9381 104.709 89.9368H109.521C109.62 89.938 109.716 89.9053 109.794 89.8442C109.872 89.7831 109.927 89.6972 109.949 89.6008C110.01 89.3122 109.796 89.0908 109.305 88.9368C108.986 88.874 108.697 88.7086 108.481 88.4658C108.351 87.8746 108.284 87.2712 108.281 86.6658C108.243 85.9098 108.224 84.4765 108.224 82.3658V81.3238C108.208 80.8179 108.253 80.3119 108.358 79.8168C108.654 78.9168 109.221 78.1302 109.981 77.5644C110.741 76.9986 111.657 76.6813 112.604 76.6558C115.366 76.6558 115.829 80.1178 115.829 81.9008C115.829 84.4735 115.81 86.1025 115.773 86.7878C115.769 87.3545 115.701 87.9189 115.573 88.4708C115.359 88.7124 115.073 88.8778 114.757 88.9418C114.325 89.0785 114.109 89.2688 114.109 89.5128C114.11 89.6268 114.155 89.7359 114.236 89.8163C114.317 89.8967 114.426 89.9418 114.54 89.9418H119.329C119.442 89.9421 119.55 89.8976 119.63 89.8181C119.71 89.7386 119.755 89.6306 119.756 89.5178C119.761 89.2548 119.536 89.0678 119.085 88.9448Z" fill="white"/>
<path d="M176.753 88.945C176.601 88.9129 176.454 88.8612 176.316 88.791C176.142 88.6936 176.004 88.5428 175.922 88.361C175.801 88.0646 175.733 87.7491 175.722 87.429C175.708 87.122 175.699 83.235 175.722 82.362C175.745 81.489 175.75 80.502 175.75 79.976C175.872 78.5227 175.425 77.0787 174.504 75.948C173.984 75.481 173.374 75.1251 172.712 74.9024C172.049 74.6797 171.348 74.5949 170.652 74.653C169.36 74.6278 168.084 74.9434 166.952 75.568C165.877 76.178 165.339 76.8304 165.34 77.525C165.333 77.6568 165.354 77.7885 165.4 77.9122C165.446 78.0358 165.517 78.1487 165.608 78.2441C165.701 78.3336 165.81 78.4034 165.931 78.4493C166.051 78.4952 166.179 78.5162 166.308 78.511C166.787 78.511 167.261 78.1777 167.73 77.511C167.88 77.311 167.993 77.1657 168.068 77.075C168.386 76.6932 168.779 76.3813 169.223 76.1591C169.659 75.9555 170.136 75.8529 170.617 75.859C171.032 75.8212 171.451 75.8868 171.835 76.0502C172.219 76.2135 172.556 76.4694 172.817 76.795C173.34 77.8409 173.573 79.0076 173.493 80.1741C173.493 80.4181 173.493 80.601 173.486 80.723C173.479 80.845 173.474 80.963 173.465 81.075C172.948 81.019 171.455 80.892 170.437 80.892C166.013 80.892 164.156 83.1151 164.156 86.067C164.177 86.6426 164.313 87.2082 164.556 87.7305C164.798 88.2528 165.143 88.7213 165.569 89.1085C165.996 89.4956 166.495 89.7936 167.039 89.9848C167.582 90.176 168.158 90.2567 168.733 90.222C172.32 90.222 173.31 88.5071 173.31 88.5071C173.31 88.6944 173.347 88.8798 173.418 89.0529C173.49 89.226 173.595 89.3832 173.727 89.5157C173.86 89.6481 174.017 89.7532 174.19 89.8248C174.363 89.8964 174.549 89.9332 174.736 89.933H176.999C177.112 89.9333 177.22 89.8888 177.3 89.8093C177.38 89.7298 177.425 89.6219 177.426 89.5091C177.429 89.2551 177.203 89.068 176.753 88.945ZM173.468 84.445C173.516 85.6352 173.128 86.802 172.376 87.726C172 88.0926 171.553 88.3786 171.063 88.5664C170.573 88.7542 170.049 88.8398 169.525 88.818C169.108 88.8087 168.697 88.7131 168.318 88.5373C167.939 88.3615 167.601 88.1092 167.325 87.7964C167.048 87.4836 166.839 87.1169 166.711 86.7195C166.583 86.322 166.539 85.9024 166.581 85.487C166.581 82.8 168.589 82.0791 170.933 82.0791C171.783 82.0867 172.631 82.167 173.468 82.319V84.445Z" fill="white"/>
<path d="M95.7739 74.646C93.7634 74.7095 91.8603 75.568 90.4821 77.0332C89.1039 78.4983 88.3633 80.4504 88.4229 82.461C88.4229 87.213 91.2099 90.276 95.7739 90.276C97.7844 90.2125 99.6875 89.354 101.066 87.8888C102.444 86.4237 103.184 84.4716 103.125 82.461C103.125 77.709 100.337 74.646 95.7739 74.646ZM96.8139 88.715C93.8199 89.305 91.3839 86.74 90.8059 83.28C90.2279 79.82 91.9939 76.743 94.7139 76.185C97.8039 75.554 100.144 78.161 100.723 81.621C101.302 85.081 99.5359 88.178 96.8139 88.715Z" fill="white"/>
<path d="M139.534 82.0699H149.497C149.603 82.0699 149.705 82.0278 149.78 81.9528C149.855 81.8778 149.897 81.776 149.897 81.6699C149.897 79.7529 149.184 74.6699 143.383 74.6699C140.665 74.6699 136.45 76.1469 136.45 82.7699C136.393 83.7359 136.536 84.7032 136.869 85.6117C137.202 86.5202 137.718 87.3506 138.386 88.0512C139.053 88.7518 139.858 89.3077 140.749 89.6844C141.64 90.0611 142.599 90.2505 143.567 90.2409C144.826 90.2717 146.069 89.9501 147.155 89.3125C148.241 88.6748 149.127 87.7464 149.714 86.6319C149.749 86.5581 149.768 86.478 149.771 86.3965C149.774 86.3149 149.76 86.2337 149.73 86.1577C149.701 86.0817 149.656 86.0125 149.598 85.9545C149.541 85.8964 149.472 85.8506 149.397 85.8199L149.382 85.8139C149.26 85.7636 149.125 85.7543 148.998 85.7875C148.871 85.8207 148.758 85.8946 148.676 85.9979C148.076 86.8293 147.25 87.4709 146.296 87.8464C145.342 88.2219 144.3 88.3154 143.295 88.1159C139.202 87.6579 139.134 83.7999 139.134 82.4689C139.134 82.363 139.176 82.2615 139.251 82.1867C139.326 82.1119 139.428 82.0699 139.534 82.0699ZM139.802 78.1819C140.157 77.5435 140.677 77.0116 141.307 76.6414C141.936 76.2711 142.654 76.0758 143.384 76.0758C144.115 76.0758 144.832 76.2711 145.462 76.6414C146.092 77.0116 146.612 77.5435 146.967 78.1819C147.3 78.8853 147.469 79.6556 147.459 80.4339C147.457 80.539 147.414 80.6392 147.34 80.7129C147.265 80.7866 147.164 80.8279 147.059 80.8279H139.714C139.609 80.8279 139.508 80.7866 139.433 80.7129C139.358 80.6392 139.315 80.539 139.314 80.4339C139.304 79.6569 139.471 78.8878 139.802 78.1849V78.1819Z" fill="white"/>
<path d="M86.3409 84.585C86.2552 84.5938 86.1724 84.6215 86.0986 84.6662C86.0248 84.7108 85.9617 84.7711 85.9139 84.843C85.2234 85.9035 84.2873 86.7818 83.185 87.4035C82.0827 88.0251 80.8467 88.3718 79.5819 88.414C78.0929 88.414 71.5069 87.673 71.5089 78.889C71.5089 66.384 84.3509 68.127 85.0659 73.52C85.1381 73.699 85.2599 73.8537 85.4171 73.9659C85.5742 74.078 85.7601 74.1429 85.9529 74.153C86.0888 74.158 86.2244 74.1361 86.3517 74.0885C86.4791 74.0409 86.5957 73.9685 86.6949 73.8755C86.7942 73.7825 86.874 73.6708 86.9297 73.5467C86.9855 73.4227 87.0162 73.2889 87.02 73.153L87.127 70.014C87.1356 69.8501 87.1046 69.6865 87.0366 69.5371C86.9685 69.3878 86.8654 69.257 86.736 69.156C86.6067 69.055 86.4549 68.9867 86.2935 68.9569C86.1321 68.9272 85.9658 68.9368 85.8089 68.985C85.1413 69.1958 84.4189 69.148 83.7849 68.851C82.4361 68.2558 80.9854 67.9251 79.5119 67.877C75.3009 67.877 68.4519 70.297 68.4519 79.105C68.4519 88.498 75.9279 90.373 79.2829 90.373C80.8882 90.3618 82.4624 89.929 83.8477 89.1178C85.233 88.3066 86.3807 87.1455 87.1759 85.751C87.2461 85.6193 87.2781 85.4707 87.2683 85.3219C87.2585 85.1731 87.2073 85.03 87.1205 84.9087C87.0336 84.7874 86.9146 84.6928 86.7769 84.6356C86.6391 84.5784 86.4881 84.5609 86.3409 84.585Z" fill="white"/>
<path d="M97.266 30.5119C97.2349 30.4953 97.1993 30.4891 97.1644 30.4942C97.1295 30.4993 97.0971 30.5154 97.072 30.5402C97.047 30.5651 97.0306 30.5973 97.0251 30.6321C97.0197 30.667 97.0256 30.7027 97.042 30.7339L104.059 44.3049C104.067 44.3206 104.079 44.3341 104.094 44.3445C104.108 44.3549 104.124 44.3619 104.142 44.3649H104.16C104.175 44.3652 104.19 44.3624 104.203 44.3567C104.217 44.351 104.23 44.3426 104.24 44.3319L105.311 43.2609L105.326 43.1189L97.814 31.3849C97.8079 31.3709 97.8062 31.3554 97.809 31.3404C97.8119 31.3255 97.8192 31.3117 97.83 31.3009C97.8407 31.2901 97.8545 31.2828 97.8695 31.28C97.8845 31.2771 97.9 31.2788 97.914 31.2849L109.647 38.7959L109.787 38.7809L110.858 37.7099C110.871 37.6975 110.881 37.6822 110.887 37.6652C110.892 37.6483 110.894 37.6302 110.891 37.6124C110.889 37.5947 110.882 37.5779 110.871 37.5633C110.861 37.5488 110.847 37.537 110.831 37.5289L97.266 30.5119Z" fill="#DD4624"/>
<path d="M97.0719 17.854C97.0873 17.8695 97.1055 17.8818 97.1256 17.8902C97.1457 17.8986 97.1672 17.9029 97.189 17.903C97.2155 17.903 97.2416 17.8964 97.265 17.884L110.836 10.867C110.852 10.8587 110.866 10.8468 110.876 10.8322C110.886 10.8176 110.893 10.8007 110.896 10.783C110.899 10.7649 110.898 10.7463 110.892 10.7288C110.886 10.7114 110.876 10.6956 110.863 10.683L109.793 9.61199L109.651 9.59699L97.9209 17.108C97.907 17.1141 97.8915 17.1158 97.8765 17.113C97.8615 17.1101 97.8477 17.1028 97.837 17.092C97.8262 17.0812 97.8189 17.0675 97.816 17.0525C97.8132 17.0375 97.8149 17.022 97.821 17.008L105.332 5.27599L105.316 5.13499L104.245 4.06399C104.233 4.04991 104.217 4.03946 104.2 4.03381C104.182 4.02816 104.163 4.02753 104.145 4.03199C104.128 4.03504 104.111 4.04203 104.097 4.05243C104.082 4.06282 104.07 4.07635 104.062 4.09199L97.045 17.663C97.029 17.6937 97.023 17.7286 97.0279 17.7628C97.0327 17.7971 97.0481 17.8289 97.0719 17.854Z" fill="#2879B3"/>
<path d="M93.051 15.532C93.065 15.5359 93.0795 15.538 93.094 15.538C93.1216 15.5381 93.1487 15.5312 93.1729 15.5179C93.197 15.5046 93.2174 15.4854 93.232 15.462L101.476 2.6C101.485 2.58529 101.491 2.56857 101.493 2.55119C101.495 2.53382 101.492 2.51628 101.486 2.5C101.48 2.48338 101.47 2.46847 101.457 2.45647C101.444 2.44448 101.428 2.43575 101.411 2.431L99.948 2.039L99.817 2.097L93.417 14.469C93.4093 14.4846 93.3963 14.497 93.3804 14.5042C93.3645 14.5113 93.3467 14.5127 93.3299 14.5081C93.3131 14.5034 93.2985 14.4931 93.2885 14.4789C93.2784 14.4646 93.2736 14.4474 93.275 14.43L93.913 0.513997L93.829 0.398997L92.365 0.00699726C92.3478 0.0026308 92.3299 0.00225468 92.3126 0.00589482C92.2952 0.00953496 92.279 0.0170946 92.265 0.0279972C92.251 0.0391643 92.2399 0.0535301 92.2325 0.0698864C92.2252 0.0862426 92.2219 0.104112 92.223 0.121997L92.933 15.383C92.9344 15.4171 92.9466 15.4499 92.9678 15.4766C92.989 15.5034 93.0181 15.5228 93.051 15.532Z" fill="#2879B3"/>
<path d="M89.094 0.00393623L87.632 0.395936L87.5479 0.508937L88.187 14.4269C88.1883 14.4443 88.1835 14.4616 88.1735 14.4758C88.1635 14.4901 88.1488 14.5004 88.132 14.505C88.1152 14.5096 88.0974 14.5082 88.0815 14.5011C88.0656 14.494 88.0527 14.4815 88.0449 14.4659L81.645 2.09294L81.515 2.03594L80.052 2.42794C80.0345 2.43241 80.0184 2.44101 80.005 2.45302C79.9916 2.46503 79.9813 2.48009 79.9749 2.49694C79.9688 2.51326 79.9666 2.53076 79.9683 2.5481C79.9701 2.56543 79.9757 2.58214 79.9849 2.59694L88.2299 15.4599C88.2452 15.4828 88.2659 15.5016 88.2901 15.5147C88.3143 15.5277 88.3415 15.5347 88.369 15.5349C88.3838 15.535 88.3986 15.533 88.4129 15.5289C88.4464 15.5194 88.4761 15.4996 88.4978 15.4723C88.5195 15.4451 88.5322 15.4117 88.534 15.3769L89.242 0.115938C89.2434 0.0980016 89.2403 0.0799849 89.233 0.0635542C89.2256 0.0471236 89.2143 0.03281 89.2 0.0219378C89.1851 0.0104496 89.1677 0.00279599 89.1492 -0.000343858C89.1307 -0.0034837 89.1117 -0.00201434 89.094 0.00393623Z" fill="#2879B3"/>
<path d="M84.1921 17.8849C84.2229 17.902 84.2585 17.9085 84.2934 17.9032C84.3283 17.898 84.3606 17.8814 84.385 17.8559C84.4098 17.831 84.426 17.799 84.4314 17.7643C84.4368 17.7296 84.4311 17.6941 84.415 17.6629L77.399 4.08491C77.3906 4.0691 77.3786 4.05546 77.364 4.04505C77.3495 4.03464 77.3327 4.02775 77.315 4.02491C77.297 4.02045 77.2781 4.02108 77.2605 4.02673C77.2428 4.03238 77.2271 4.04283 77.215 4.05691L76.143 5.12791L76.128 5.26891L83.639 17.0009C83.6451 17.0149 83.6469 17.0304 83.644 17.0454C83.6412 17.0604 83.6339 17.0742 83.6231 17.085C83.6123 17.0957 83.5985 17.103 83.5835 17.1059C83.5685 17.1087 83.553 17.107 83.539 17.1009L71.807 9.58991L71.6661 9.60491L70.5931 10.6849C70.58 10.6977 70.5703 10.7135 70.5647 10.731C70.5592 10.7484 70.5579 10.7669 70.561 10.7849C70.5638 10.8026 70.5707 10.8194 70.5811 10.834C70.5915 10.8486 70.6052 10.8606 70.621 10.8689L84.1921 17.8849Z" fill="#84276F"/>
<path d="M66.644 22.7071H66.65L81.912 21.9981C81.9459 21.9954 81.9782 21.9822 82.0044 21.9605C82.0305 21.9387 82.0493 21.9094 82.0582 21.8766C82.0671 21.8437 82.0656 21.809 82.0539 21.777C82.0423 21.745 82.021 21.7175 81.993 21.6981L69.131 13.4531C69.1164 13.4435 69.0997 13.4376 69.0823 13.4358C69.0648 13.4341 69.0473 13.4366 69.031 13.4431C69.0144 13.4494 68.9994 13.4597 68.9875 13.4728C68.9755 13.486 68.9668 13.5019 68.962 13.5191L68.569 14.9821L68.6271 15.1131L80.998 21.5131C81.0135 21.5208 81.0259 21.5336 81.033 21.5494C81.0401 21.5651 81.0415 21.5829 81.037 21.5996C81.0326 21.6163 81.0225 21.6309 81.0085 21.6411C80.9944 21.6512 80.9773 21.6561 80.96 21.6551L67.044 21.0151C67.0189 21.0174 66.9949 21.0265 66.9746 21.0415C66.9544 21.0565 66.9386 21.0767 66.9291 21.1001L66.537 22.5631C66.5327 22.5802 66.5323 22.5982 66.5359 22.6155C66.5396 22.6328 66.5471 22.6491 66.558 22.6631C66.5681 22.6764 66.5811 22.6873 66.596 22.6949C66.6109 22.7025 66.6273 22.7067 66.644 22.7071Z" fill="#84276F"/>
<path d="M82.063 26.519C82.0541 26.4852 82.0347 26.4552 82.0075 26.4332C81.9804 26.4113 81.9469 26.3986 81.912 26.397L66.65 25.685C66.6321 25.684 66.6142 25.6873 66.5979 25.6946C66.5815 25.7019 66.5671 25.713 66.5559 25.727C66.5446 25.741 66.5368 25.7574 66.5332 25.775C66.5296 25.7925 66.5302 25.8107 66.535 25.828L66.927 27.292L67.042 27.376L80.958 26.736C80.9753 26.7349 80.9924 26.7399 81.0064 26.75C81.0205 26.7601 81.0306 26.7747 81.035 26.7915C81.0395 26.8082 81.0381 26.8259 81.031 26.8417C81.0238 26.8574 81.0115 26.8703 80.996 26.878L68.625 33.278L68.567 33.408L68.96 34.872C68.9668 34.8959 68.9813 34.9171 69.0011 34.9322C69.0209 34.9473 69.0451 34.9557 69.07 34.956C69.0917 34.9561 69.1129 34.9498 69.131 34.938L81.993 26.693C82.0211 26.6746 82.0428 26.6481 82.0553 26.617C82.0678 26.5859 82.0705 26.5517 82.063 26.519Z" fill="#84276F"/>
<path d="M84.385 30.54C84.3604 30.5152 84.3284 30.499 84.2938 30.4938C84.2592 30.4885 84.2239 30.4946 84.193 30.511L70.621 37.528C70.6052 37.5361 70.5915 37.5479 70.5811 37.5623C70.5707 37.5767 70.5638 37.5934 70.561 37.611C70.558 37.629 70.5593 37.6475 70.5649 37.6648C70.5705 37.6822 70.5802 37.6981 70.593 37.711L71.664 38.782L71.805 38.797L83.538 31.285C83.5521 31.2772 83.5685 31.274 83.5845 31.2761C83.6005 31.2782 83.6155 31.2853 83.6272 31.2965C83.6389 31.3076 83.6468 31.3222 83.6496 31.3381C83.6525 31.3541 83.6502 31.3705 83.643 31.385L76.131 43.117L76.147 43.259L77.218 44.33C77.2284 44.3407 77.2408 44.3491 77.2546 44.3548C77.2684 44.3604 77.2831 44.3632 77.298 44.363H77.315C77.3327 44.3601 77.3495 44.3532 77.364 44.3428C77.3786 44.3324 77.3906 44.3188 77.399 44.303L84.414 30.734C84.4303 30.7027 84.4362 30.6671 84.431 30.6323C84.4258 30.5974 84.4097 30.5651 84.385 30.54Z" fill="#84276F"/>
<path d="M88.408 32.8628C88.3741 32.8533 88.3379 32.8549 88.305 32.8675C88.272 32.8801 88.244 32.903 88.2251 32.9328L79.9801 45.7948C79.9709 45.8096 79.9652 45.8264 79.9635 45.8437C79.9617 45.861 79.964 45.8785 79.9701 45.8948C79.9762 45.9115 79.9864 45.9264 79.9997 45.9383C80.0129 45.9501 80.0288 45.9586 80.046 45.9628L81.5091 46.3558L81.6401 46.2978L88.0401 33.9258C88.0478 33.9104 88.0606 33.898 88.0764 33.8909C88.0921 33.8838 88.1099 33.8823 88.1266 33.8868C88.1433 33.8913 88.1579 33.9014 88.168 33.9154C88.1782 33.9295 88.1831 33.9466 88.1821 33.9638L87.5481 47.8848L87.6321 47.9988L89.0941 48.3908C89.104 48.3924 89.1141 48.3924 89.124 48.3908C89.1499 48.3908 89.1749 48.382 89.1951 48.3658C89.2093 48.3548 89.2205 48.3405 89.2279 48.3241C89.2352 48.3077 89.2384 48.2898 89.2371 48.2718L88.5291 33.0108C88.5268 32.9767 88.5139 32.9441 88.4922 32.9175C88.4705 32.891 88.4411 32.8719 88.408 32.8628Z" fill="#DD4624"/>
<path d="M93.233 32.934C93.2137 32.9061 93.1862 32.8849 93.1544 32.8732C93.1225 32.8614 93.0878 32.8599 93.0549 32.8686C93.0221 32.8774 92.9928 32.896 92.971 32.922C92.9492 32.9481 92.9359 32.9802 92.9331 33.014L92.223 48.276C92.2222 48.2939 92.2256 48.3117 92.2329 48.328C92.2402 48.3444 92.2512 48.3587 92.2651 48.37C92.2853 48.386 92.3103 48.3948 92.3361 48.395C92.3457 48.3966 92.3555 48.3966 92.3651 48.395L93.8291 48.003L93.913 47.888L93.275 33.971C93.274 33.9538 93.279 33.9367 93.2891 33.9226C93.2992 33.9086 93.3138 33.8985 93.3305 33.894C93.3472 33.8895 93.365 33.891 93.3807 33.8981C93.3965 33.9052 93.4094 33.9175 93.4171 33.933L99.814 46.301L99.944 46.359L101.407 45.966C101.424 45.9616 101.44 45.9531 101.453 45.9413C101.466 45.9294 101.476 45.9146 101.482 45.898C101.488 45.8817 101.491 45.8642 101.489 45.8468C101.487 45.8294 101.481 45.8127 101.472 45.798L93.233 32.934Z" fill="#DD4624"/>
</g>
<defs>
<clipPath id="clip0_115_120">
<rect width="177.429" height="90.371" fill="white"/>
</clipPath>
</defs>
</svg>
