<?xml version="1.0" encoding="UTF-8"?> <svg xmlns="http://www.w3.org/2000/svg" width="177.429" height="90.371" viewBox="0 0 177.429 90.371"><g id="Group_272" data-name="Group 272" transform="translate(-451.286 -20.015)"><g id="Group_270" data-name="Group 270"><g id="Group_256" data-name="Group 256"><g id="Group_255" data-name="Group 255"><g id="Group_248" data-name="Group 248"><path id="Path_357" data-name="Path 357" d="M489.121,108.953a1.5,1.5,0,0,1-.824-.471,7,7,0,0,1-.239-2.078q-.071-1.809-.071-7.329c0-2.789.038-6.419.113-9.161q.028-.732.028-.873a1.478,1.478,0,0,0-.162-.824.464.464,0,0,0-.2-.152.458.458,0,0,0-.322,0l-3.3,1.087a.48.48,0,0,0-.341.438v0q0,.492.7.591a3.557,3.557,0,0,1,.789.155q.3.225.408,1.655c.075.953.113,4.163.113,7.9v2.423q0,3.45-.057,4.682a4.756,4.756,0,0,1-.2,1.486,1.488,1.488,0,0,1-.823.471q-.656.205-.655.571h0a.431.431,0,0,0,.431.429h4.826a.431.431,0,0,0,.432-.429h0Q489.776,109.158,489.121,108.953Z" fill="#1d1d1b"></path></g><g id="Group_249" data-name="Group 249"><path id="Path_358" data-name="Path 358" d="M496.366,108.953a1.492,1.492,0,0,1-.824-.471,6.96,6.96,0,0,1-.239-2.078q-.07-1.809-.071-7.329c0-2.789.038-6.419.113-9.161q.029-.732.028-.873a1.478,1.478,0,0,0-.162-.824.459.459,0,0,0-.524-.155l-3.3,1.087a.48.48,0,0,0-.341.438v0q0,.492.7.591a3.557,3.557,0,0,1,.789.155q.3.225.408,1.655c.075.953.113,4.163.113,7.9v2.423q0,3.45-.057,4.682a4.756,4.756,0,0,1-.2,1.486,1.492,1.492,0,0,1-.824.471q-.654.205-.655.571h0a.431.431,0,0,0,.432.429h4.826a.431.431,0,0,0,.432-.429h0Q497.021,109.158,496.366,108.953Z" fill="#1d1d1b"></path></g><g id="Group_251" data-name="Group 251"><g id="Group_250" data-name="Group 250"><path id="Path_359" data-name="Path 359" d="M481.906,108.96a1.783,1.783,0,0,1-.437-.154.932.932,0,0,1-.394-.43,2.718,2.718,0,0,1-.2-.932c-.014-.307-.023-4.194,0-5.067s.028-1.86.028-2.386a5.632,5.632,0,0,0-1.246-4.028,5.125,5.125,0,0,0-3.852-1.3,7.364,7.364,0,0,0-3.7.916q-1.612.915-1.612,1.957a.97.97,0,0,0,.268.719.952.952,0,0,0,.7.267q.719,0,1.422-1,.225-.3.338-.436a3.6,3.6,0,0,1,1.155-.916,3.2,3.2,0,0,1,1.394-.3,2.525,2.525,0,0,1,2.2.936,6.542,6.542,0,0,1,.676,3.379c0,.244,0,.427-.007.549s-.012.24-.021.352c-.517-.056-2.01-.183-3.028-.183-4.424,0-6.281,2.223-6.281,5.175a4.32,4.32,0,0,0,4.577,4.155c3.588,0,4.577-1.715,4.577-1.715a1.426,1.426,0,0,0,1.426,1.426h2.263a.426.426,0,0,0,.427-.424v0C482.582,109.27,482.356,109.083,481.906,108.96Zm-3.285-4.5a4.888,4.888,0,0,1-1.092,3.281,3.854,3.854,0,0,1-2.851,1.092,3.027,3.027,0,0,1-2.944-3.331c0-2.687,2.008-3.408,4.352-3.408a14.923,14.923,0,0,1,2.535.24Z" fill="#1d1d1b"></path></g></g><g id="Group_252" data-name="Group 252"><path id="Path_360" data-name="Path 360" d="M453.224,89.852a5.347,5.347,0,0,1,.86,1.617c.035.09,5.975,15.143,7.173,18.233a.847.847,0,0,0,.79.54h0a.844.844,0,0,0,.785-.531c1.228-3.064,7.358-18.1,7.512-18.435a5.3,5.3,0,0,1,.879-1.424,5.916,5.916,0,0,1,1.645-.752.569.569,0,0,0-.275-1.066h-5.826a.514.514,0,0,0-.5.351c-.086.305.152.608.949.879.523.177,1.339.36,1.3,1.207-.068,1.368-4.044,10.641-5.5,13.977a.536.536,0,0,1-.992-.022c-1.229-3.212-4.5-11.815-5.068-13.618-.356-1.123.661-1.367,1.184-1.544.8-.271,1.035-.574.948-.879a.512.512,0,0,0-.5-.351h-6.729a.569.569,0,0,0-.275,1.066A5.9,5.9,0,0,1,453.224,89.852Z" fill="#1d1d1b"></path></g><g id="Group_254" data-name="Group 254"><g id="Group_253" data-name="Group 253"><path id="Path_361" data-name="Path 361" d="M500.97,102.064h9.963a.4.4,0,0,0,.4-.4c0-1.917-.714-7-6.515-7-2.718,0-6.933,1.477-6.933,8.1a7.06,7.06,0,0,0,7.118,7.472,6.759,6.759,0,0,0,6.141-3.616.6.6,0,0,0-.317-.812l-.015-.006a.605.605,0,0,0-.706.184,5.353,5.353,0,0,1-5.381,2.118c-4.093-.459-4.16-4.316-4.16-5.648A.4.4,0,0,1,500.97,102.064Zm.269-3.889a4.1,4.1,0,0,1,7.165,0,5.12,5.12,0,0,1,.491,2.252.4.4,0,0,1-.4.394h-7.341a.4.4,0,0,1-.4-.394A5.107,5.107,0,0,1,501.239,98.175Z" fill="#1d1d1b"></path></g></g></g></g><g id="Group_269" data-name="Group 269"><g id="Group_268" data-name="Group 268"><path id="Path_362" data-name="Path 362" d="M611.435,94.668" fill="#1d1d1b"></path><g id="Group_257" data-name="Group 257"><path id="Path_363" data-name="Path 363" d="M613.361,103.823c-1.393-2.692-7.184-3.456-7.068-5.8a2.572,2.572,0,0,1,2.656-2.239,3.377,3.377,0,0,1,1.683.423,3.16,3.16,0,0,1,1.2,1.2q.1.168.282.507.492.873.9.873a.515.515,0,0,0,.495-.647l-.834-3.166a.405.405,0,0,0-.563-.261l-.006,0a2.558,2.558,0,0,1-1.608.191,6.734,6.734,0,0,0-1.6-.232c-2.331,0-5.027,1.117-5.027,3.828,0,3.718,6.076,4.517,7.427,6.826a1.822,1.822,0,0,1,.337,1.314,2.276,2.276,0,0,1-.979,1.708,4.229,4.229,0,0,1-2.649.577,3.377,3.377,0,0,1-1.594-.685,2.762,2.762,0,0,1-1-1.229q-.07-.183-.2-.546-.348-.94-.751-1a.513.513,0,0,0-.591.56l.319,3.257a.4.4,0,0,0,.513.348l.007,0a2.561,2.561,0,0,1,1.618.068,6.649,6.649,0,0,0,1.541.484,6.485,6.485,0,0,0,4.352-.917,4.086,4.086,0,0,0,1.615-3.092A4.032,4.032,0,0,0,613.361,103.823Z" fill="#1d1d1b"></path></g><g id="Group_259" data-name="Group 259"><g id="Group_258" data-name="Group 258"><path id="Path_364" data-name="Path 364" d="M586.459,108.96a1.767,1.767,0,0,1-.437-.154.932.932,0,0,1-.394-.43,2.835,2.835,0,0,1-.141-.908c-.028-.592-.148-5.041-.148-7.8q0-2.957.141-6.485c.093-2.352.141-4.056.141-4.441a2.11,2.11,0,0,0-.029-.332.439.439,0,0,0-.569-.352l-3.034.988a.438.438,0,0,0,.066.849l.017,0a3.4,3.4,0,0,1,.493.084.759.759,0,0,1,.443.591,11.177,11.177,0,0,1,.134,2.027v2.338a1.918,1.918,0,0,1-.077.612c-.052.146-.12.218-.205.218a1.074,1.074,0,0,1-.309-.14,7.4,7.4,0,0,0-3.592-.93,6.482,6.482,0,0,0-5.006,2.232,8.01,8.01,0,0,0-2.021,5.584,8.969,8.969,0,0,0,1.789,5.745,5.914,5.914,0,0,0,4.6,1.986,6.87,6.87,0,0,0,2-.268,11.413,11.413,0,0,0,2.694-1.447h0a1.425,1.425,0,0,0,1.426,1.426h2.263a.427.427,0,0,0,.427-.424v0C587.135,109.27,586.909,109.083,586.459,108.96Zm-3.979-1.718a5.393,5.393,0,0,1-3.492,1.366,3.879,3.879,0,0,1-3.211-1.57,8.323,8.323,0,0,1-1.225-4.7,7.176,7.176,0,0,1,1.323-4.513,4.175,4.175,0,0,1,3.465-1.711,3.849,3.849,0,0,1,2.83.964,3.79,3.79,0,0,1,.972,2.81v4.929a8.1,8.1,0,0,1-.148,1.738A1.732,1.732,0,0,1,582.48,107.242Z" fill="#1d1d1b"></path></g></g><g id="Group_260" data-name="Group 260"><path id="Path_365" data-name="Path 365" d="M570.371,108.96a1.782,1.782,0,0,1-.437-.154.932.932,0,0,1-.394-.43,2.867,2.867,0,0,1-.141-.908c-.028-.592-.049-1.589-.063-2.134s-.021-1.061-.021-1.549c0-.263,0-.624.014-1.084s.014-.794.014-1c0-.638.276-7.033-5.07-7.033-2.584,0-4.488,2.626-4.619,2.626a.136.136,0,0,1-.127-.077,1.239,1.239,0,0,1-.042-.393v-.8a1.612,1.612,0,0,0-.155-.845.527.527,0,0,0-.378-.214.461.461,0,0,0-.266.04l-2.743,1.282a.466.466,0,0,0,.119.883l.015,0q.747.1.873.3a2.148,2.148,0,0,1,.275,1.176c.061.8.091,2.275.091,3.73q0,2.873-.063,4.133a9.362,9.362,0,0,1-.218,1.972,1.5,1.5,0,0,1-.824.471q-.737.229-.645.664a.435.435,0,0,0,.429.336h4.812a.434.434,0,0,0,.428-.336q.092-.433-.644-.664a1.488,1.488,0,0,1-.824-.471,8.522,8.522,0,0,1-.2-1.8q-.057-1.134-.057-4.3v-1.042a6.287,6.287,0,0,1,.134-1.507,4.6,4.6,0,0,1,4.246-3.161c2.762,0,3.225,3.462,3.225,5.245q0,3.859-.056,4.887a7.693,7.693,0,0,1-.2,1.683,1.482,1.482,0,0,1-.816.471q-.648.205-.648.571h0a.431.431,0,0,0,.431.429h4.789a.426.426,0,0,0,.427-.424v0C571.047,109.27,570.822,109.083,570.371,108.96Z" fill="#1d1d1b"></path></g><g id="Group_262" data-name="Group 262"><g id="Group_261" data-name="Group 261"><path id="Path_366" data-name="Path 366" d="M628.039,108.96a1.783,1.783,0,0,1-.437-.154.932.932,0,0,1-.394-.43,2.719,2.719,0,0,1-.2-.932c-.014-.307-.023-4.194,0-5.067s.028-1.86.028-2.386a5.632,5.632,0,0,0-1.246-4.028,5.125,5.125,0,0,0-3.852-1.295,7.358,7.358,0,0,0-3.7.915q-1.613.915-1.612,1.957a.97.97,0,0,0,.268.719.952.952,0,0,0,.7.267q.719,0,1.422-1,.225-.3.338-.436a3.594,3.594,0,0,1,1.155-.916,3.2,3.2,0,0,1,1.394-.3,2.525,2.525,0,0,1,2.2.936,6.552,6.552,0,0,1,.676,3.379c0,.244,0,.427-.007.549s-.012.24-.021.352c-.517-.056-2.01-.183-3.028-.183-4.424,0-6.281,2.223-6.281,5.175a4.32,4.32,0,0,0,4.577,4.155c3.587,0,4.577-1.715,4.577-1.715a1.425,1.425,0,0,0,1.426,1.426h2.263a.426.426,0,0,0,.427-.424v0C628.715,109.27,628.489,109.083,628.039,108.96Zm-3.285-4.5a4.888,4.888,0,0,1-1.092,3.281,3.854,3.854,0,0,1-2.851,1.092,3.027,3.027,0,0,1-2.944-3.331c0-2.687,2.008-3.408,4.352-3.408a14.923,14.923,0,0,1,2.535.24Z" fill="#1d1d1b"></path></g></g><g id="Group_264" data-name="Group 264"><g id="Group_263" data-name="Group 263"><path id="Path_367" data-name="Path 367" d="M547.06,94.661a7.594,7.594,0,0,0-7.351,7.815c0,4.752,2.787,7.815,7.351,7.815a7.594,7.594,0,0,0,7.351-7.815C554.411,97.724,551.623,94.661,547.06,94.661ZM548.1,108.73c-2.994.59-5.43-1.975-6.008-5.435S543.28,96.758,546,96.2c3.09-.631,5.43,1.976,6.009,5.436S550.822,108.193,548.1,108.73Z" fill="#1d1d1b"></path></g></g><g id="Group_266" data-name="Group 266"><g id="Group_265" data-name="Group 265"><path id="Path_368" data-name="Path 368" d="M590.82,102.085h9.963a.4.4,0,0,0,.4-.4c0-1.917-.713-7-6.514-7-2.718,0-6.933,1.477-6.933,8.1a7.059,7.059,0,0,0,7.117,7.471A6.76,6.76,0,0,0,601,106.647a.6.6,0,0,0-.317-.812l-.015-.006a.605.605,0,0,0-.706.184,5.351,5.351,0,0,1-5.381,2.118c-4.093-.458-4.161-4.316-4.161-5.647A.4.4,0,0,1,590.82,102.085Zm.268-3.888a4.1,4.1,0,0,1,7.165,0,5.107,5.107,0,0,1,.492,2.252.4.4,0,0,1-.4.394H591a.4.4,0,0,1-.4-.394A5.12,5.12,0,0,1,591.088,98.2Z" fill="#1d1d1b"></path></g></g><g id="Group_267" data-name="Group 267"><path id="Path_369" data-name="Path 369" d="M537.627,104.6a.585.585,0,0,0-.427.258,7.869,7.869,0,0,1-6.332,3.571c-1.489,0-8.075-.741-8.073-9.525,0-12.505,12.842-10.762,13.557-5.369a1.013,1.013,0,0,0,.887.633,1.029,1.029,0,0,0,1.067-1l.107-3.139A1.02,1.02,0,0,0,537.095,89a2.79,2.79,0,0,1-2.024-.134,11.517,11.517,0,0,0-4.273-.974c-4.211,0-11.06,2.42-11.06,11.228,0,9.393,7.476,11.268,10.831,11.268a9.159,9.159,0,0,0,7.893-4.622A.8.8,0,0,0,537.627,104.6Z" fill="#1d1d1b"></path></g></g></g></g><g id="Group_271" data-name="Group 271"><path id="Path_370" data-name="Path 370" d="M548.552,50.527a.165.165,0,0,0-.224.222l7.017,13.571a.117.117,0,0,0,.083.06h.018a.109.109,0,0,0,.08-.033l1.071-1.071.015-.142L549.1,51.4a.076.076,0,0,1,.1-.1l11.733,7.511.14-.015,1.071-1.071a.112.112,0,0,0-.027-.181Z" fill="#dd4624"></path><path id="Path_371" data-name="Path 371" d="M548.358,37.869a.165.165,0,0,0,.117.049.162.162,0,0,0,.076-.019l13.571-7.017a.114.114,0,0,0,.06-.084.111.111,0,0,0-.033-.1l-1.07-1.071-.142-.015-11.73,7.511a.076.076,0,0,1-.1-.1l7.511-11.732-.016-.141-1.071-1.071a.1.1,0,0,0-.1-.032.117.117,0,0,0-.083.06l-7.017,13.571A.166.166,0,0,0,548.358,37.869Z" fill="#2879b3"></path><path id="Path_372" data-name="Path 372" d="M544.337,35.547a.16.16,0,0,0,.043.006.162.162,0,0,0,.138-.076l8.244-12.862a.111.111,0,0,0,.01-.1.112.112,0,0,0-.075-.069l-1.463-.392-.131.058-6.4,12.372a.075.075,0,0,1-.142-.039l.638-13.916-.084-.115-1.464-.392a.116.116,0,0,0-.1.021.112.112,0,0,0-.042.094l.71,15.261A.162.162,0,0,0,544.337,35.547Z" fill="#2879b3"></path><path id="Path_373" data-name="Path 373" d="M540.38,20.019l-1.462.392-.084.113.639,13.918a.075.075,0,0,1-.142.039l-6.4-12.373-.13-.057-1.463.392a.112.112,0,0,0-.077.069.114.114,0,0,0,.01.1l8.245,12.863a.169.169,0,0,0,.139.075.161.161,0,0,0,.044-.006.167.167,0,0,0,.121-.152l.708-15.261a.107.107,0,0,0-.042-.094A.114.114,0,0,0,540.38,20.019Z" fill="#2879b3"></path><path id="Path_374" data-name="Path 374" d="M535.478,37.9a.16.16,0,0,0,.193-.029.166.166,0,0,0,.03-.193L528.685,24.1a.116.116,0,0,0-.084-.06.1.1,0,0,0-.1.032l-1.072,1.071-.015.141,7.511,11.732a.076.076,0,0,1-.1.1l-11.732-7.511-.141.015L521.879,30.7a.113.113,0,0,0-.032.1.115.115,0,0,0,.06.084Z" fill="#84276f"></path><path id="Path_375" data-name="Path 375" d="M517.93,42.722h.006l15.262-.709a.165.165,0,0,0,.081-.3l-12.862-8.245a.109.109,0,0,0-.1-.01.114.114,0,0,0-.069.076l-.393,1.463.058.131,12.371,6.4a.075.075,0,0,1-.038.142l-13.916-.64a.138.138,0,0,0-.115.085l-.392,1.463a.116.116,0,0,0,.021.1A.111.111,0,0,0,517.93,42.722Z" fill="#84276f"></path><path id="Path_376" data-name="Path 376" d="M533.349,46.534a.164.164,0,0,0-.151-.122L517.936,45.7a.113.113,0,0,0-.115.143l.392,1.464.115.084,13.916-.64a.075.075,0,0,1,.038.142l-12.371,6.4-.058.13.393,1.464a.116.116,0,0,0,.11.084.111.111,0,0,0,.061-.018l12.862-8.245A.164.164,0,0,0,533.349,46.534Z" fill="#84276f"></path><path id="Path_377" data-name="Path 377" d="M535.671,50.555a.163.163,0,0,0-.192-.029l-13.572,7.017a.113.113,0,0,0-.06.083.115.115,0,0,0,.032.1l1.071,1.071.141.015L534.824,51.3a.076.076,0,0,1,.105.1l-7.512,11.732.016.142,1.071,1.071a.109.109,0,0,0,.08.033h.017a.116.116,0,0,0,.084-.06L535.7,50.749A.167.167,0,0,0,535.671,50.555Z" fill="#84276f"></path><path id="Path_378" data-name="Path 378" d="M539.694,52.878a.164.164,0,0,0-.183.07L531.266,65.81a.114.114,0,0,0-.01.1.109.109,0,0,0,.076.068l1.463.393.131-.058,6.4-12.372a.075.075,0,0,1,.142.038L538.834,67.9l.084.114,1.462.392a.1.1,0,0,0,.03,0,.114.114,0,0,0,.071-.025.109.109,0,0,0,.042-.094l-.708-15.261A.165.165,0,0,0,539.694,52.878Z" fill="#dd4624"></path><path id="Path_379" data-name="Path 379" d="M544.519,52.949a.165.165,0,0,0-.3.08l-.71,15.262a.114.114,0,0,0,.042.094.116.116,0,0,0,.071.025.092.092,0,0,0,.029,0l1.464-.392.084-.115-.638-13.917a.075.075,0,0,1,.142-.038L551.1,66.316l.13.058,1.463-.393a.109.109,0,0,0,.075-.068.111.111,0,0,0-.01-.1Z" fill="#dd4624"></path></g></g></svg> 