<svg width="41" height="45" viewBox="0 0 41 45" fill="none" xmlns="http://www.w3.org/2000/svg">
<g clip-path="url(#clip0_117_120)">
<path d="M28.062 27.8589C28.034 27.8462 28.0028 27.8424 27.9725 27.8479C27.9422 27.8534 27.9144 27.8679 27.8926 27.8897C27.8709 27.9114 27.8563 27.9392 27.8508 27.9695C27.8453 27.9998 27.8492 28.0311 27.862 28.0591L34.269 40.45C34.2762 40.4646 34.2869 40.4775 34.3001 40.4871C34.3134 40.4967 34.3288 40.5026 34.345 40.5049H34.361C34.3745 40.5051 34.388 40.5027 34.4006 40.4976C34.4131 40.4924 34.4245 40.4848 34.434 40.4751L35.412 39.4971L35.426 39.3679L28.568 28.656C28.556 28.6426 28.5498 28.6251 28.5505 28.6072C28.5513 28.5893 28.5589 28.5724 28.5719 28.5601C28.5849 28.5477 28.6022 28.5408 28.6201 28.541C28.6381 28.5412 28.6552 28.5484 28.668 28.561L39.38 35.419L39.508 35.405L40.486 34.427C40.4979 34.4158 40.5068 34.4018 40.5121 34.3862C40.5173 34.3707 40.5186 34.3541 40.516 34.3379C40.5139 34.3215 40.5077 34.3059 40.4981 34.2925C40.4886 34.2791 40.4758 34.2683 40.461 34.261L28.062 27.8589Z" fill="white"/>
<path d="M27.885 16.3029C27.8989 16.3171 27.9156 16.3284 27.9339 16.3361C27.9523 16.3438 27.972 16.3478 27.992 16.3478C28.016 16.3477 28.0396 16.342 28.061 16.331L40.452 9.92401C40.4667 9.9168 40.4793 9.90601 40.4889 9.89276C40.4985 9.87951 40.5047 9.86403 40.507 9.84783C40.5096 9.83168 40.5083 9.81526 40.5031 9.79974C40.4978 9.78422 40.4889 9.77021 40.477 9.75897L39.5 8.78094L39.371 8.76702L28.66 15.6249C28.6467 15.6382 28.6287 15.6457 28.61 15.6457C28.5912 15.6457 28.5732 15.6382 28.56 15.6249C28.5467 15.6117 28.5393 15.5936 28.5393 15.5749C28.5393 15.5561 28.5467 15.5381 28.56 15.5248L35.417 4.8139L35.403 4.68499L34.425 3.70599C34.4135 3.69444 34.3994 3.68572 34.3839 3.68084C34.3684 3.67596 34.352 3.67499 34.336 3.67791C34.3199 3.68006 34.3045 3.68608 34.2913 3.69549C34.2781 3.7049 34.2673 3.71737 34.26 3.73187L27.853 16.123C27.8379 16.1524 27.8329 16.1857 27.8386 16.2182C27.8444 16.2507 27.8607 16.2805 27.885 16.3029Z" fill="white"/>
<path d="M24.2141 14.1828C24.2268 14.186 24.2399 14.1878 24.2531 14.1879C24.2783 14.1879 24.3031 14.1816 24.3252 14.1693C24.3472 14.1571 24.3658 14.1393 24.3791 14.1178L31.9071 2.3749C31.9158 2.36111 31.9211 2.34548 31.9227 2.32925C31.9243 2.31301 31.9222 2.29663 31.9163 2.28139C31.9105 2.26616 31.9012 2.25238 31.8892 2.24136C31.8772 2.23033 31.8627 2.22239 31.8471 2.21792L30.5121 1.85976L30.3921 1.91299L24.5451 13.2128C24.5378 13.2267 24.526 13.2378 24.5116 13.244C24.4972 13.2503 24.4812 13.2515 24.4661 13.2475C24.4509 13.2434 24.4376 13.2342 24.4284 13.2216C24.4191 13.209 24.4144 13.1935 24.4151 13.1779L25.0001 0.466941L24.9231 0.366844L23.5861 0.00893338C23.5704 0.00463068 23.5539 0.00422815 23.5381 0.00771268C23.5222 0.0111972 23.5075 0.0184836 23.4951 0.0289529C23.4822 0.0390741 23.4719 0.052042 23.4653 0.0670389C23.4587 0.0820357 23.4559 0.0985389 23.4571 0.11489L24.1051 14.048C24.107 14.079 24.1185 14.1085 24.1381 14.1327C24.1576 14.1569 24.1841 14.1743 24.2141 14.1828Z" fill="white"/>
<path d="M20.6 0.00292687L19.265 0.361081L19.189 0.460935L19.772 13.1689C19.7726 13.1846 19.7679 13.2 19.7586 13.2126C19.7494 13.2253 19.7361 13.2344 19.721 13.2385C19.7058 13.2426 19.6898 13.2414 19.6754 13.2351C19.661 13.2288 19.6493 13.2177 19.642 13.2039L13.794 1.90405L13.676 1.85205L12.339 2.20996C12.3232 2.21405 12.3087 2.22193 12.2966 2.23291C12.2846 2.24389 12.2755 2.25762 12.27 2.27295C12.2636 2.28814 12.2611 2.30464 12.2627 2.32104C12.2642 2.33744 12.2698 2.35323 12.279 2.36694L19.807 14.1111C19.8207 14.132 19.8394 14.1491 19.8614 14.1611C19.8833 14.1732 19.9079 14.1796 19.933 14.1799C19.9468 14.18 19.9607 14.1781 19.974 14.1741C20.0045 14.1656 20.0316 14.1476 20.0514 14.1228C20.0712 14.098 20.0826 14.0676 20.084 14.0359L20.731 0.102048C20.732 0.0856098 20.7291 0.0691997 20.7222 0.0541964C20.7154 0.0391931 20.705 0.0258796 20.692 0.0158663C20.6788 0.00641665 20.6636 0.000308395 20.6476 -0.00195594C20.6315 -0.00422028 20.6152 -0.00251249 20.6 0.00292687Z" fill="white"/>
<path d="M16.1251 16.329C16.1531 16.3444 16.1853 16.3503 16.2169 16.3456C16.2486 16.3409 16.2778 16.326 16.3001 16.3031C16.3228 16.2808 16.3379 16.2518 16.3429 16.2203C16.3479 16.1888 16.3427 16.1564 16.3281 16.128L9.92206 3.73619C9.91429 3.72203 9.90341 3.70965 9.89025 3.7003C9.87709 3.69095 9.86198 3.68467 9.84606 3.68199C9.83007 3.67907 9.8136 3.68028 9.7981 3.68516C9.78259 3.69004 9.7685 3.69851 9.75706 3.71006L8.77806 4.68907L8.76406 4.81797L15.6221 15.5292C15.6353 15.5424 15.6428 15.5602 15.6428 15.579C15.6428 15.5977 15.6353 15.6157 15.6221 15.629C15.6088 15.6423 15.5908 15.6498 15.5721 15.6498C15.5533 15.6498 15.5353 15.6423 15.5221 15.629L4.81106 8.7711L4.68206 8.78501L3.70406 9.76304C3.69233 9.77439 3.68356 9.78854 3.6785 9.80406C3.67345 9.81957 3.67227 9.83608 3.67506 9.85215C3.67721 9.86825 3.68325 9.88359 3.69266 9.89683C3.70207 9.91007 3.71456 9.92075 3.72906 9.92808L16.1251 16.329Z" fill="white"/>
<path d="M0.100002 20.733L14.034 20.086C14.0661 20.0848 14.0969 20.0733 14.1219 20.0533C14.147 20.0333 14.165 20.0059 14.1733 19.9749C14.1815 19.9439 14.1797 19.911 14.1679 19.8812C14.1562 19.8513 14.1352 19.8262 14.108 19.8092L2.365 12.2811C2.35137 12.2718 2.33566 12.266 2.31926 12.2642C2.30286 12.2625 2.28628 12.2649 2.271 12.2711C2.256 12.2772 2.24261 12.2868 2.23186 12.2989C2.22112 12.311 2.21329 12.3255 2.209 12.3411L1.85 13.6771L1.903 13.796L13.203 19.6441C13.2169 19.6514 13.2278 19.6632 13.2341 19.6776C13.2404 19.6919 13.2416 19.7078 13.2375 19.723C13.2334 19.7381 13.2243 19.7515 13.2117 19.7608C13.1991 19.7701 13.1837 19.7746 13.168 19.774L0.462001 19.19C0.439932 19.1926 0.41898 19.2011 0.401372 19.2147C0.383765 19.2282 0.370159 19.2465 0.362001 19.2672L1.33878e-06 20.6031C-0.00484688 20.6185 -0.00591505 20.6346 -0.00311241 20.6505C-0.000309762 20.6663 0.00628125 20.6814 0.0160994 20.6942C0.0259175 20.7069 0.0386716 20.7172 0.0532793 20.7239C0.067887 20.7307 0.0839162 20.7337 0.100002 20.733Z" fill="white"/>
<path d="M14.1809 24.2139C14.1728 24.1831 14.1551 24.1558 14.1302 24.1358C14.1054 24.1158 14.0748 24.1044 14.0429 24.1031L0.108949 23.4551C0.0925963 23.4547 0.0763593 23.4579 0.0614614 23.4646C0.0465635 23.4714 0.0333954 23.4813 0.0229501 23.4939C0.0127545 23.5067 0.00564455 23.5217 0.00217529 23.5376C-0.00129398 23.5536 -0.00102914 23.5701 0.00294967 23.586L0.361949 24.9219L0.461949 24.9991L13.1679 24.4151C13.1836 24.4144 13.199 24.419 13.2116 24.4283C13.2243 24.4375 13.2334 24.451 13.2374 24.4661C13.2415 24.4812 13.2403 24.4972 13.234 24.5115C13.2278 24.5259 13.2168 24.5377 13.2029 24.545L1.90295 30.3931L1.84995 30.512L2.20895 31.8479C2.21344 31.8634 2.22135 31.8777 2.23208 31.8897C2.24282 31.9016 2.2561 31.9109 2.27095 31.917C2.2831 31.9216 2.29597 31.9241 2.30895 31.9241C2.32879 31.9245 2.34828 31.9188 2.36495 31.908L14.1079 24.3799C14.1367 24.3641 14.1594 24.3394 14.1726 24.3094C14.1858 24.2794 14.1887 24.2458 14.1809 24.2139Z" fill="white"/>
<path d="M16.3 27.886C16.2778 27.863 16.2486 27.8479 16.217 27.843C16.1854 27.8382 16.1531 27.8436 16.125 27.8589L3.73297 34.2649C3.71865 34.2727 3.70633 34.2838 3.69696 34.2971C3.68759 34.3105 3.68144 34.3259 3.67897 34.3421C3.67617 34.3581 3.67736 34.3746 3.68241 34.3902C3.68746 34.4057 3.69624 34.4196 3.70797 34.4309L4.68597 35.409L4.81497 35.4231L15.527 28.565C15.5397 28.5524 15.5569 28.5454 15.5748 28.5452C15.5927 28.545 15.61 28.5516 15.623 28.564C15.636 28.5763 15.6437 28.5932 15.6444 28.6111C15.6451 28.629 15.6389 28.6466 15.627 28.6599L8.76897 39.3721L8.78297 39.501L9.76097 40.479C9.77035 40.4886 9.78155 40.4961 9.79392 40.5012C9.80629 40.5064 9.81957 40.5091 9.83297 40.5091H9.84997C9.86603 40.5064 9.88126 40.5 9.89445 40.4905C9.90764 40.481 9.91843 40.4683 9.92597 40.4539L16.332 28.063C16.3465 28.034 16.3512 28.0012 16.3454 27.9693C16.3397 27.9374 16.3237 27.9081 16.3 27.886Z" fill="white"/>
<path d="M19.9751 30.0029C19.944 29.9944 19.9111 29.9961 19.8811 30.0076C19.851 30.0191 19.8254 30.0398 19.8081 30.0669L12.2801 41.811C12.2709 41.8248 12.2653 41.8405 12.2638 41.8569C12.2622 41.8733 12.2647 41.8898 12.2711 41.905C12.2766 41.9201 12.2857 41.9336 12.2975 41.9443C12.3093 41.9551 12.3236 41.9629 12.3391 41.967L13.6761 42.3259L13.7951 42.273L19.6431 30.9729C19.6504 30.959 19.6621 30.9482 19.6765 30.9419C19.6909 30.9356 19.7069 30.9344 19.7221 30.9385C19.7372 30.9426 19.7505 30.9517 19.7597 30.9644C19.769 30.977 19.7737 30.9924 19.7731 31.0081L19.1901 43.7151L19.2661 43.8149L20.6011 44.1731C20.6103 44.1745 20.6198 44.1745 20.6291 44.1731C20.643 44.1732 20.6568 44.1701 20.6695 44.1646C20.6823 44.159 20.6937 44.1509 20.7031 44.1406C20.7126 44.1304 20.7197 44.1182 20.7242 44.105C20.7287 44.0918 20.7303 44.0778 20.7291 44.064L20.0821 30.1299C20.0785 30.1006 20.0664 30.0731 20.0474 30.0505C20.0284 30.028 20.0033 30.0114 19.9751 30.0029Z" fill="white"/>
<path d="M24.38 30.071C24.3629 30.0438 24.3377 30.0227 24.3078 30.0109C24.278 29.9992 24.2451 29.9973 24.2142 30.0056C24.1832 30.0138 24.1557 30.032 24.1356 30.0571C24.1156 30.0821 24.1042 30.1129 24.103 30.145L23.455 44.0788C23.4538 44.0952 23.4566 44.1117 23.4632 44.1267C23.4699 44.1416 23.4801 44.1549 23.493 44.165C23.5112 44.1801 23.5343 44.1882 23.558 44.1879C23.5666 44.1894 23.5754 44.1894 23.584 44.1879L24.921 43.83L24.998 43.7299L24.415 31.0239C24.4143 31.0082 24.419 30.9928 24.4283 30.9802C24.4376 30.9675 24.4509 30.9586 24.466 30.9545C24.4811 30.9505 24.4972 30.9514 24.5115 30.9577C24.5259 30.964 24.5377 30.9751 24.545 30.989L30.392 42.289L30.512 42.342L31.847 41.9829C31.8626 41.9789 31.8771 41.9712 31.8891 41.9604C31.9011 41.9496 31.9103 41.936 31.916 41.9208C31.9223 41.9056 31.9248 41.8891 31.9233 41.8727C31.9217 41.8563 31.9161 41.8406 31.907 41.8268L24.38 30.071Z" fill="white"/>
</g>
<defs>
<clipPath id="clip0_117_120">
<rect width="41" height="45" fill="white"/>
</clipPath>
</defs>
</svg>
