<svg width="45" height="49" viewBox="0 0 45 49" fill="none" xmlns="http://www.w3.org/2000/svg">
<path d="M30.7351 30.5139C30.704 30.4972 30.6684 30.491 30.6335 30.4961C30.5986 30.5012 30.5662 30.5174 30.5411 30.5422C30.5161 30.567 30.4997 30.5992 30.4943 30.6341C30.4889 30.6689 30.4948 30.7046 30.5111 30.7359L37.5281 44.3069C37.5365 44.3225 37.5483 44.3361 37.5627 44.3464C37.5771 44.3568 37.5936 44.3638 37.6111 44.3669H37.6291C37.644 44.3671 37.6588 44.3643 37.6725 44.3587C37.6863 44.353 37.6987 44.3446 37.7091 44.3339L38.7801 43.2629L38.7951 43.1209L31.2831 31.3869C31.277 31.3729 31.2753 31.3574 31.2781 31.3424C31.281 31.3274 31.2883 31.3136 31.2991 31.3028C31.3099 31.292 31.3236 31.2848 31.3386 31.2819C31.3536 31.2791 31.3691 31.2808 31.3831 31.2869L43.1161 38.7979L43.2561 38.7829L44.3271 37.7119C44.3401 37.6995 44.3498 37.6842 44.3556 37.6672C44.3615 37.6502 44.3631 37.6321 44.3605 37.6144C44.3578 37.5966 44.351 37.5798 44.3405 37.5653C44.3299 37.5507 44.3161 37.5389 44.3001 37.5309L30.7351 30.5139Z" fill="#DD4624"/>
<path d="M30.5411 17.8559C30.5564 17.8714 30.5746 17.8837 30.5947 17.8921C30.6148 17.9005 30.6363 17.9049 30.6581 17.9049C30.6846 17.9049 30.7107 17.8984 30.7341 17.8859L44.3051 10.8689C44.321 10.8606 44.3347 10.8487 44.3451 10.8341C44.3556 10.8195 44.3624 10.8027 44.3651 10.7849C44.3683 10.7668 44.367 10.7482 44.3612 10.7308C44.3554 10.7133 44.3454 10.6976 44.3321 10.6849L43.2621 9.61394L43.1201 9.59894L31.3901 17.1099C31.3761 17.116 31.3606 17.1178 31.3456 17.1149C31.3306 17.1121 31.3169 17.1048 31.3061 17.094C31.2953 17.0832 31.288 17.0694 31.2851 17.0544C31.2823 17.0394 31.284 17.0239 31.2901 17.0099L38.8011 5.27794L38.7851 5.13694L37.7141 4.06594C37.702 4.05186 37.6863 4.04141 37.6686 4.03576C37.651 4.03011 37.6321 4.02948 37.6141 4.03394C37.5966 4.037 37.58 4.04398 37.5657 4.05438C37.5513 4.06477 37.5395 4.0783 37.5311 4.09394L30.5141 17.6649C30.4981 17.6956 30.4922 17.7305 30.497 17.7648C30.5018 17.799 30.5172 17.8309 30.5411 17.8559Z" fill="#2879B3"/>
<path d="M26.5201 15.534C26.5341 15.5379 26.5486 15.5399 26.5631 15.54C26.5907 15.5401 26.6178 15.5332 26.642 15.5199C26.6661 15.5066 26.6865 15.4873 26.7011 15.464L34.9451 2.60195C34.9545 2.58724 34.9604 2.57052 34.9621 2.55315C34.9638 2.53577 34.9614 2.51823 34.9551 2.50195C34.9489 2.48534 34.9389 2.47042 34.9259 2.45843C34.9129 2.44643 34.8972 2.4377 34.8801 2.43295L33.4171 2.04095L33.2861 2.09895L26.8861 14.471C26.8784 14.4866 26.8654 14.499 26.8495 14.5061C26.8337 14.5132 26.8158 14.5146 26.799 14.51C26.7822 14.5054 26.7676 14.4951 26.7576 14.4808C26.7475 14.4666 26.7427 14.4493 26.7441 14.432L27.3821 0.51595L27.2981 0.400951L25.8341 0.00895039C25.8169 0.00458393 25.799 0.0042078 25.7817 0.00784794C25.7643 0.0114881 25.7481 0.0190477 25.7341 0.0299503C25.7201 0.0411175 25.709 0.0554833 25.7017 0.0718395C25.6944 0.0881957 25.6911 0.106065 25.6921 0.12395L26.4021 15.3849C26.4036 15.419 26.4158 15.4518 26.437 15.4786C26.4581 15.5053 26.4872 15.5247 26.5201 15.534Z" fill="#2879B3"/>
<path d="M22.5632 0.00588936L21.1012 0.39789L21.0172 0.51089L21.6562 14.4289C21.6575 14.4463 21.6527 14.4635 21.6427 14.4778C21.6327 14.492 21.6181 14.5023 21.6013 14.5069C21.5845 14.5116 21.5666 14.5102 21.5507 14.5031C21.5349 14.4959 21.5219 14.4835 21.5142 14.4679L15.1142 2.09489L14.9842 2.03789L13.5212 2.42989C13.5038 2.43436 13.4877 2.44296 13.4743 2.45497C13.4609 2.46698 13.4505 2.48205 13.4442 2.49889C13.4381 2.51521 13.4358 2.53272 13.4376 2.55005C13.4393 2.56739 13.445 2.58409 13.4542 2.59889L21.6992 15.4619C21.7145 15.4848 21.7351 15.5036 21.7594 15.5166C21.7836 15.5297 21.8107 15.5367 21.8382 15.5369C21.8531 15.5369 21.8678 15.5349 21.8822 15.5309C21.9157 15.5213 21.9454 15.5016 21.9671 15.4743C21.9888 15.447 22.0014 15.4137 22.0032 15.3789L22.7112 0.117891C22.7127 0.0999547 22.7096 0.081938 22.7022 0.0655074C22.6949 0.0490767 22.6835 0.0347631 22.6692 0.0238909C22.6544 0.0124027 22.6369 0.00474911 22.6184 0.00160927C22.5999 -0.00153058 22.581 -6.12135e-05 22.5632 0.00588936Z" fill="#2879B3"/>
<path d="M17.661 17.8869C17.6919 17.904 17.7275 17.9104 17.7624 17.9052C17.7973 17.9 17.8296 17.8833 17.854 17.8579C17.8788 17.833 17.895 17.8009 17.9004 17.7662C17.9058 17.7316 17.9 17.6961 17.884 17.6649L10.868 4.08686C10.8596 4.07106 10.8476 4.05741 10.833 4.047C10.8185 4.03659 10.8017 4.0297 10.784 4.02686C10.766 4.0224 10.7471 4.02303 10.7295 4.02868C10.7118 4.03433 10.6961 4.04478 10.684 4.05886L9.61203 5.12986L9.59702 5.27086L17.108 17.0029C17.1141 17.0169 17.1159 17.0324 17.113 17.0473C17.1102 17.0623 17.1029 17.0761 17.0921 17.0869C17.0813 17.0977 17.0675 17.105 17.0525 17.1078C17.0375 17.1107 17.022 17.1089 17.008 17.1029L5.27604 9.59186L5.13505 9.60686L4.06205 10.6869C4.04902 10.6997 4.0393 10.7155 4.03373 10.7329C4.02815 10.7503 4.02685 10.7688 4.03 10.7869C4.03277 10.8046 4.03967 10.8214 4.05008 10.836C4.0605 10.8506 4.07415 10.8625 4.09 10.8709L17.661 17.8869Z" fill="#84276F"/>
<path d="M0.113013 22.709H0.118995L15.381 22C15.4149 21.9973 15.4472 21.9842 15.4734 21.9624C15.4995 21.9407 15.5183 21.9114 15.5272 21.8785C15.5361 21.8457 15.5346 21.8109 15.5229 21.7789C15.5113 21.747 15.49 21.7194 15.462 21.7L2.60001 13.455C2.58537 13.4454 2.56865 13.4395 2.55125 13.4378C2.53384 13.4361 2.51628 13.4385 2.50004 13.445C2.48339 13.4514 2.46844 13.4616 2.45646 13.4748C2.44447 13.488 2.43576 13.5038 2.43101 13.521L2.038 14.984L2.09605 15.115L14.467 21.515C14.4825 21.5227 14.4949 21.5355 14.502 21.5513C14.5091 21.5671 14.5105 21.5848 14.506 21.6015C14.5015 21.6182 14.4915 21.6329 14.4775 21.643C14.4634 21.6531 14.4463 21.6581 14.429 21.657L0.513038 21.017C0.487933 21.0193 0.463914 21.0285 0.443641 21.0435C0.423367 21.0584 0.407623 21.0787 0.398047 21.102L0.00601853 22.565C0.00165207 22.5822 0.00127976 22.6001 0.0049199 22.6174C0.00856004 22.6348 0.016112 22.6511 0.0270146 22.665C0.0371074 22.6784 0.0500863 22.6892 0.0649785 22.6969C0.0798706 22.7045 0.0962894 22.7086 0.113013 22.709Z" fill="#84276F"/>
<path d="M15.5321 26.5209C15.5232 26.4872 15.5038 26.4571 15.4766 26.4352C15.4495 26.4132 15.416 26.4005 15.3811 26.3989L0.119092 25.6869C0.101189 25.686 0.0833405 25.6893 0.066968 25.6966C0.0505955 25.7039 0.0362115 25.715 0.0249758 25.729C0.0137401 25.7429 0.00595578 25.7594 0.00233177 25.7769C-0.00129225 25.7945 -0.000684216 25.8127 0.00410179 25.8299L0.396131 27.2939L0.511121 27.3779L14.4271 26.7379C14.4444 26.7369 14.4615 26.7418 14.4755 26.7519C14.4896 26.762 14.4997 26.7767 14.5042 26.7934C14.5086 26.8101 14.5072 26.8279 14.5001 26.8436C14.493 26.8594 14.4806 26.8722 14.4651 26.8799L2.09413 33.2799L2.03615 33.4099L2.42909 34.8739C2.43596 34.8979 2.45041 34.919 2.47023 34.9341C2.49004 34.9493 2.51421 34.9576 2.53914 34.9579C2.56079 34.958 2.58197 34.9518 2.60011 34.9399L15.4621 26.6949C15.4902 26.6766 15.5119 26.65 15.5244 26.6189C15.5369 26.5878 15.5396 26.5536 15.5321 26.5209Z" fill="#84276F"/>
<path d="M17.8542 30.5419C17.8295 30.5171 17.7975 30.5009 17.7629 30.4957C17.7283 30.4905 17.693 30.4965 17.6621 30.5129L4.09012 37.5299C4.07429 37.5381 4.06063 37.5498 4.0502 37.5642C4.03977 37.5787 4.03288 37.5954 4.03012 37.6129C4.02713 37.6309 4.02846 37.6494 4.03402 37.6668C4.03959 37.6842 4.04927 37.7 4.06216 37.7129L5.13315 38.7839L5.27414 38.7989L17.0071 31.2869C17.0213 31.2791 17.0376 31.276 17.0536 31.2781C17.0697 31.2801 17.0846 31.2873 17.0963 31.2984C17.1081 31.3096 17.1159 31.3242 17.1187 31.3401C17.1216 31.356 17.1193 31.3724 17.1121 31.3869L9.60013 43.1189L9.61612 43.2609L10.6872 44.3319C10.6975 44.3426 10.71 44.351 10.7237 44.3567C10.7375 44.3624 10.7522 44.3652 10.7671 44.3649H10.7841C10.8018 44.3621 10.8186 44.3552 10.8332 44.3448C10.8477 44.3344 10.8597 44.3207 10.8681 44.3049L17.8831 30.7359C17.8994 30.7047 17.9053 30.6691 17.9001 30.6342C17.8949 30.5994 17.8788 30.5671 17.8542 30.5419Z" fill="#84276F"/>
<path d="M21.877 32.8648C21.8431 32.8552 21.8069 32.8569 21.7739 32.8695C21.741 32.8821 21.713 32.905 21.694 32.9348L13.4491 45.7968C13.4399 45.8116 13.4342 45.8283 13.4325 45.8456C13.4307 45.863 13.433 45.8805 13.439 45.8968C13.4452 45.9135 13.4554 45.9284 13.4686 45.9402C13.4819 45.9521 13.4978 45.9605 13.515 45.9648L14.978 46.3578L15.1091 46.2998L21.5091 33.9278C21.5168 33.9123 21.5296 33.9 21.5454 33.8929C21.5611 33.8857 21.5789 33.8843 21.5956 33.8888C21.6123 33.8932 21.6269 33.9034 21.637 33.9174C21.6472 33.9314 21.6521 33.9485 21.6511 33.9658L21.017 47.8868L21.1011 48.0008L22.5631 48.3928C22.573 48.3943 22.5831 48.3943 22.593 48.3928C22.6189 48.3927 22.6439 48.3839 22.6641 48.3678C22.6783 48.3568 22.6895 48.3425 22.6969 48.3261C22.7042 48.3097 22.7074 48.2917 22.7061 48.2738L21.9981 33.0128C21.9958 32.9786 21.9829 32.946 21.9612 32.9195C21.9395 32.893 21.9101 32.8739 21.877 32.8648Z" fill="#DD4624"/>
<path d="M26.702 32.936C26.6827 32.9081 26.6552 32.8868 26.6234 32.8751C26.5915 32.8634 26.5567 32.8618 26.5239 32.8706C26.4911 32.8793 26.4618 32.898 26.44 32.924C26.4182 32.95 26.4049 32.9821 26.402 33.016L25.692 48.278C25.6912 48.2958 25.6946 48.3137 25.7019 48.33C25.7091 48.3463 25.7202 48.3607 25.7341 48.372C25.7543 48.388 25.7793 48.3968 25.8051 48.397C25.8147 48.3985 25.8244 48.3985 25.8341 48.397L27.298 48.005L27.382 47.89L26.744 33.973C26.743 33.9557 26.748 33.9386 26.7581 33.9246C26.7682 33.9105 26.7828 33.9004 26.7995 33.8959C26.8162 33.8915 26.834 33.8929 26.8497 33.9C26.8655 33.9071 26.8783 33.9195 26.8861 33.935L33.283 46.303L33.413 46.361L34.876 45.968C34.8931 45.9636 34.9089 45.9551 34.9219 45.9432C34.935 45.9314 34.945 45.9165 34.9511 45.9C34.9574 45.8837 34.9598 45.8662 34.958 45.8488C34.9563 45.8314 34.9505 45.8147 34.941 45.8L26.702 32.936Z" fill="#DD4624"/>
</svg>
